<svg xmlns="http://www.w3.org/2000/svg" width="40" height="40" viewBox="0 0 40 40">
  <g id="Group_554" data-name="Group 554" transform="translate(0)">
    <rect id="Rectangle_1510" data-name="Rectangle 1510" width="40" height="40" fill="#191919"/>
    <path id="Path_97" data-name="Path 97" d="M-119.431-153.426a8.141,8.141,0,0,1-2.188.6,3.765,3.765,0,0,0,1.684-2.087,7.775,7.775,0,0,1-2.43.918,3.8,3.8,0,0,0-2.793-1.189,3.789,3.789,0,0,0-3.811,3.75,3.921,3.921,0,0,0,.111.858,10.83,10.83,0,0,1-7.865-3.923,3.785,3.785,0,0,0-.523,1.886,3.751,3.751,0,0,0,1.693,3.126,3.688,3.688,0,0,1-1.723-.464v.051a3.558,3.558,0,0,0,.261,1.351,3.806,3.806,0,0,0,2.8,2.319,3.753,3.753,0,0,1-1.008.14,3.384,3.384,0,0,1-.717-.08,3.846,3.846,0,0,0,3.56,2.621,7.715,7.715,0,0,1-4.73,1.6c-.313,0-.6-.02-.917-.051a11,11,0,0,0,5.848,1.684,10.613,10.613,0,0,0,10.6-8.409,10.358,10.358,0,0,0,.251-2.269v-.484a7.893,7.893,0,0,0,1.9-1.946Z" transform="translate(149.038 167.6)" fill="#ed1d24" fill-rule="evenodd"/>
  </g>
</svg>
