<svg id="Group_542" data-name="Group 542" xmlns="http://www.w3.org/2000/svg" width="15.699" height="15.698" viewBox="0 0 15.699 15.698">
  <path id="Path_93" data-name="Path 93" d="M61.065,407.828a4.311,4.311,0,1,0,4.311,4.31A4.316,4.316,0,0,0,61.065,407.828Zm0,7.252a2.941,2.941,0,1,1,2.942-2.941A2.945,2.945,0,0,1,61.065,415.08Z" transform="translate(-53.216 -404.29)" fill="#ed1d24" fill-rule="evenodd"/>
  <path id="Path_94" data-name="Path 94" d="M63.5,402.659H55.372a3.792,3.792,0,0,0-3.787,3.787v8.125a3.791,3.791,0,0,0,3.787,3.786H63.5a3.791,3.791,0,0,0,3.787-3.786v-8.125A3.791,3.791,0,0,0,63.5,402.659Zm2.418,11.912a2.42,2.42,0,0,1-2.418,2.417H55.372a2.42,2.42,0,0,1-2.418-2.417v-8.125a2.42,2.42,0,0,1,2.418-2.418H63.5a2.421,2.421,0,0,1,2.418,2.418Z" transform="translate(-51.585 -402.659)" fill="#ed1d24" fill-rule="evenodd"/>
  <path id="Path_95" data-name="Path 95" d="M68.918,406.636a.788.788,0,1,0,.789.789A.788.788,0,0,0,68.918,406.636Z" transform="translate(-56.804 -403.914)" fill="#ed1d24" fill-rule="evenodd"/>
</svg>
