<svg xmlns="http://www.w3.org/2000/svg" width="16.512" height="12.109" viewBox="0 0 16.512 12.109">
  <path id="Path_91" data-name="Path 91" d="M-250.961,10.551a3.871,3.871,0,0,0-.662-1.709,2.365,2.365,0,0,0-1.646-.735c-2.31-.17-5.773-.17-5.773-.17h-.018s-3.454,0-5.764.17a2.354,2.354,0,0,0-1.655.735,3.871,3.871,0,0,0-.662,1.709,26.3,26.3,0,0,0-.17,2.774v1.316a25.858,25.858,0,0,0,.17,2.774,3.93,3.93,0,0,0,.662,1.718,2.7,2.7,0,0,0,1.826.734c1.316.134,5.612.179,5.612.179s3.463-.018,5.773-.179a2.321,2.321,0,0,0,1.646-.734,3.93,3.93,0,0,0,.662-1.718,27.377,27.377,0,0,0,.161-2.774V13.325c0-1.378-.161-2.774-.161-2.774Zm-5.334,3.258-4.466,2.408V11.383l2.023,1.1Z" transform="translate(267.312 -7.937)" fill="#ed1d24" fill-rule="evenodd"/>
</svg>
